<svg xmlns="http://www.w3.org/2000/svg" width="97" height="30" fill="none" viewBox="0 0 97 30">
  <g clip-path="url(#a)">
    <path fill="#FF385C" d="M27.79 21.262c-.153-.366-.295-.75-.447-1.079l-.703-1.565-.029-.028c-2.09-4.5-4.324-9.075-6.69-13.575l-.096-.188c-.238-.44-.475-.928-.722-1.378-.304-.534-.599-1.106-1.084-1.65A5.028 5.028 0 0 0 16.28.457a5.095 5.095 0 0 0-4.312 0 5.029 5.029 0 0 0-1.741 1.342c-.447.544-.78 1.116-1.083 1.65a27.88 27.88 0 0 1-.723 1.406l-.095.188c-2.328 4.5-4.6 9.075-6.69 13.575l-.058.056c-.209.488-.456.994-.693 1.538-.153.328-.305.684-.457 1.078a6.295 6.295 0 0 0-.38 3.246 6.331 6.331 0 0 0 1.3 3.005c.69.874 1.6 1.555 2.639 1.976a6.544 6.544 0 0 0 3.284.426 8.036 8.036 0 0 0 3.023-1.031c1.235-.685 2.423-1.678 3.754-3.113 1.33 1.434 2.547 2.428 3.754 3.122a8.048 8.048 0 0 0 3.82 1.078 6.506 6.506 0 0 0 4.245-1.548 6.343 6.343 0 0 0 2.17-3.918 5.499 5.499 0 0 0-.247-3.28v.009Zm-13.648 1.556c-1.635-2.063-2.7-3.956-3.06-5.578a4.81 4.81 0 0 1-.096-1.838 2.9 2.9 0 0 1 .494-1.256c.57-.816 1.569-1.322 2.662-1.322a3.173 3.173 0 0 1 1.498.325c.465.23.864.569 1.163.988.247.375.427.787.485 1.265.095.544.056 1.172-.096 1.838-.36 1.594-1.425 3.506-3.05 5.578Zm12.108 1.387a4.432 4.432 0 0 1-.903 2.12 4.518 4.518 0 0 1-1.853 1.396c-.723.3-1.521.384-2.3.3a6.006 6.006 0 0 1-2.3-.788 14.812 14.812 0 0 1-3.45-2.906c1.996-2.437 3.203-4.66 3.659-6.637a7.253 7.253 0 0 0 .152-2.56 5.142 5.142 0 0 0-.817-2.062 5.075 5.075 0 0 0-1.864-1.594 5.153 5.153 0 0 0-2.404-.544c-1.758 0-3.326.807-4.277 2.129a4.817 4.817 0 0 0-.807 2.071 6.09 6.09 0 0 0 .152 2.56c.456 1.978 1.691 4.228 3.659 6.656a13.569 13.569 0 0 1-3.45 2.925c-.79.45-1.54.684-2.3.778a4.57 4.57 0 0 1-3.324-.882 4.45 4.45 0 0 1-1.732-2.934c-.095-.75-.029-1.5.275-2.343.095-.3.238-.6.39-.957.209-.487.456-.993.694-1.5l.038-.065a304.94 304.94 0 0 1 6.624-13.51l.095-.187c.238-.45.475-.928.722-1.378.247-.478.514-.938.856-1.313a3.15 3.15 0 0 1 1.084-.821 3.192 3.192 0 0 1 2.67 0 3.15 3.15 0 0 1 1.083.821c.333.375.608.835.856 1.313.237.45.475.937.722 1.378l.095.187a369.437 369.437 0 0 1 6.653 13.51l.028.028c.247.488.457 1.031.694 1.5.152.366.304.656.4.966.18.843.275 1.593.18 2.343Zm13.23-1.593a4.828 4.828 0 0 1-2.076-.436 4.764 4.764 0 0 1-1.679-1.28 6.09 6.09 0 0 1-1.52-4.2 6.472 6.472 0 0 1 1.577-4.294 5.032 5.032 0 0 1 1.743-1.296 5.095 5.095 0 0 1 2.135-.447 4.134 4.134 0 0 1 1.994.451 4.068 4.068 0 0 1 1.522 1.349l.096-1.472h2.775v11.325h-2.785l-.095-1.65a4.274 4.274 0 0 1-1.587 1.447 4.344 4.344 0 0 1-2.1.503Zm.722-2.7a2.84 2.84 0 0 0 1.492-.422c.418-.3.76-.694 1.026-1.172.238-.478.361-1.05.361-1.688a3.17 3.17 0 0 0-.317-1.607 3.219 3.219 0 0 0-1.08-1.243 2.833 2.833 0 0 0-2.965 0c-.418.3-.76.694-1.026 1.172a3.716 3.716 0 0 0-.361 1.688 3.17 3.17 0 0 0 .317 1.607c.245.5.617.927 1.08 1.243.446.272.931.422 1.473.422ZM50.799 7.93c0 .328-.057.628-.21.872-.151.235-.36.45-.636.6-.276.15-.57.206-.875.206-.304 0-.608-.056-.883-.206a1.74 1.74 0 0 1-.637-.6 1.687 1.687 0 0 1-.21-.872c0-.337.067-.637.21-.872.152-.28.37-.45.637-.6.275-.15.57-.215.883-.215.303-.007.602.064.869.205.266.141.491.348.652.601.139.273.207.576.2.881Zm-3.232 14.344V10.968h3.023v11.325h-3.032l.01-.019Zm11.101-8.344v.038c-.142-.066-.333-.094-.475-.122-.19-.037-.342-.037-.523-.037-.846 0-1.483.243-1.9.75-.457.515-.666 1.237-.666 2.165v5.56h-3.032V10.959h2.785l.095 1.715c.304-.6.665-1.05 1.178-1.387a2.977 2.977 0 0 1 1.72-.47c.22 0 .428.02.609.057.095.028.152.028.21.056v3Zm1.217 8.344V6.318h3.022v6.094a4.778 4.778 0 0 1 1.52-1.294 4.83 4.83 0 0 1 3.106-.375 4.783 4.783 0 0 1 2.673 1.603 6.09 6.09 0 0 1 1.52 4.21 6.471 6.471 0 0 1-1.577 4.293 5.033 5.033 0 0 1-1.743 1.296 5.095 5.095 0 0 1-2.135.448 4.132 4.132 0 0 1-1.994-.452 4.068 4.068 0 0 1-1.522-1.348l-.095 1.472-2.775.028v-.019Zm5.845-2.362c.541 0 1.026-.15 1.482-.422.418-.3.76-.694 1.027-1.172.247-.478.36-1.05.36-1.688 0-.628-.113-1.2-.36-1.678-.25-.46-.6-.861-1.027-1.172a2.832 2.832 0 0 0-2.965 0c-.428.3-.76.694-1.036 1.172a3.715 3.715 0 0 0-.361 1.688 3.168 3.168 0 0 0 .317 1.607c.245.5.617.927 1.08 1.243.447.272.931.422 1.483.422Zm7.137 2.372V10.959h2.785l.095 1.471a3.743 3.743 0 0 1 1.438-1.337 3.806 3.806 0 0 1 1.926-.434 3.936 3.936 0 0 1 2.165.603 3.859 3.859 0 0 1 1.466 1.684c.332.713.513 1.594.513 2.578v6.788h-3.032v-6.394c0-.788-.18-1.406-.541-1.866-.362-.45-.856-.694-1.483-.694-.456 0-.855.094-1.207.3a2.353 2.353 0 0 0-.818.872 2.504 2.504 0 0 0-.304 1.266v6.488h-3.003Zm11.9 0V6.307h3.031v6.094c.41-.547.945-.991 1.56-1.299a4.49 4.49 0 0 1 1.985-.473 4.828 4.828 0 0 1 2.075.436 4.77 4.77 0 0 1 1.68 1.28 6.108 6.108 0 0 1 1.51 4.2 6.462 6.462 0 0 1-1.578 4.294 5.03 5.03 0 0 1-1.742 1.296 5.097 5.097 0 0 1-2.135.448 4.133 4.133 0 0 1-1.994-.452 4.069 4.069 0 0 1-1.523-1.349l-.085 1.472-2.785.029Zm5.873-2.372c.55 0 1.036-.15 1.482-.422.428-.3.76-.694 1.036-1.172.238-.478.361-1.05.361-1.688a3.17 3.17 0 0 0-.317-1.607 3.219 3.219 0 0 0-1.08-1.243 2.832 2.832 0 0 0-2.965 0c-.418.3-.76.694-1.026 1.172a3.363 3.363 0 0 0-.362 1.688 3.168 3.168 0 0 0 .318 1.607c.244.5.617.927 1.08 1.243.446.272.902.422 1.473.422Z"/>
  </g>
  <defs>
    <clipPath id="a">
      <path fill="#fff" d="M0 0h96.941v30H0z"/>
    </clipPath>
  </defs>
</svg>
