<svg xmlns="http://www.w3.org/2000/svg" width="97" height="30" fill="none" viewBox="0 0 97 30">
  <g clip-path="url(#a)">
    <path fill="#F90" fill-rule="evenodd" d="M60.14 23.461c-5.633 4.264-13.798 6.54-20.829 6.54-9.857 0-18.731-3.745-25.445-9.972-.527-.49-.055-1.157.578-.776 7.245 4.33 16.204 6.934 25.458 6.934 6.241 0 13.107-1.326 19.42-4.078.953-.416 1.75.641.818 1.352Z" clip-rule="evenodd"/>
    <path fill="#F90" fill-rule="evenodd" d="M62.482 20.71c-.717-.945-4.76-.447-6.574-.226-.553.07-.637-.425-.14-.78 3.22-2.327 8.504-1.655 9.12-.875.616.784-.16 6.222-3.186 8.818-.464.399-.907.186-.7-.342.679-1.742 2.202-5.647 1.48-6.596Z" clip-rule="evenodd"/>
    <path fill="#000" fill-rule="evenodd" d="M56.035 3.276V1.014a.55.55 0 0 1 .557-.572h9.862c.316 0 .57.234.57.572v1.937c-.005.325-.27.75-.743 1.422l-5.11 7.492c1.898-.048 3.903.243 5.624 1.24.388.225.494.554.524.879v2.414c0 .329-.355.715-.726.515-3.034-1.633-7.064-1.811-10.419.018-.342.19-.7-.191-.7-.52v-2.293c0-.368.004-.996.363-1.555l5.92-8.72h-5.152a.552.552 0 0 1-.57-.567ZM20.061 17.39h-3a.574.574 0 0 1-.536-.525V1.053a.57.57 0 0 1 .578-.568h2.798a.572.572 0 0 1 .544.529v2.067h.055c.73-1.998 2.101-2.93 3.95-2.93 1.878 0 3.05.932 3.895 2.93.725-1.998 2.375-2.93 4.143-2.93 1.258 0 2.633.534 3.473 1.73.95 1.33.756 3.263.756 4.957l-.005 9.98a.574.574 0 0 1-.578.572h-2.996a.579.579 0 0 1-.54-.572V8.437c0-.667.06-2.331-.084-2.964-.224-1.062-.895-1.36-1.764-1.36-.726 0-1.486.498-1.794 1.295-.308.797-.278 2.132-.278 3.029v8.38a.574.574 0 0 1-.578.573h-2.996a.576.576 0 0 1-.54-.572l-.005-8.381c0-1.764.283-4.36-1.848-4.36-2.156 0-2.072 2.531-2.072 4.36v8.38a.574.574 0 0 1-.578.573M75.513.152c4.452 0 6.861 3.926 6.861 8.918 0 4.823-2.662 8.65-6.861 8.65-4.372 0-6.752-3.927-6.752-8.82 0-4.922 2.41-8.748 6.752-8.748Zm.025 3.228c-2.211 0-2.35 3.094-2.35 5.022 0 1.933-.03 6.058 2.325 6.058 2.325 0 2.435-3.328 2.435-5.356 0-1.334-.055-2.929-.448-4.194-.337-1.101-1.008-1.53-1.962-1.53Zm12.609 14.01H85.16a.579.579 0 0 1-.54-.572L84.614 1a.573.573 0 0 1 .578-.516h2.781a.578.578 0 0 1 .536.442v2.418h.055c.84-2.162 2.017-3.193 4.089-3.193 1.346 0 2.658.498 3.502 1.863.785 1.265.785 3.393.785 4.923v9.953a.581.581 0 0 1-.578.499h-3.009a.575.575 0 0 1-.531-.499V8.303c0-1.73.194-4.26-1.878-4.26-.73 0-1.401.503-1.734 1.265-.422.967-.477 1.929-.477 2.995v8.515a.584.584 0 0 1-.587.572M48.173 9.837c0 1.2.03 2.201-.561 3.267-.477.867-1.237 1.4-2.076 1.4-1.152 0-1.828-.902-1.828-2.232 0-2.626 2.292-3.103 4.465-3.103v.668Zm3.026 7.51a.614.614 0 0 1-.71.073c-.995-.85-1.177-1.244-1.721-2.054-1.646 1.725-2.815 2.24-4.946 2.24-2.527 0-4.49-1.599-4.49-4.8 0-2.501 1.317-4.204 3.2-5.036 1.628-.737 3.902-.867 5.641-1.07v-.4c0-.732.055-1.598-.367-2.231-.363-.568-1.063-.802-1.684-.802-1.143 0-2.16.603-2.41 1.85-.05.278-.248.551-.523.564l-2.907-.32c-.245-.057-.52-.26-.447-.646C40.5 1.092 43.692 0 46.545 0c1.46 0 3.366.399 4.518 1.534 1.46 1.4 1.321 3.267 1.321 5.3v4.801c0 1.443.583 2.076 1.131 2.856.19.277.232.61-.012.819-.612.524-1.701 1.5-2.3 2.045l-.004-.009M8.84 9.837c0 1.2.03 2.201-.56 3.267-.478.867-1.233 1.4-2.077 1.4-1.152 0-1.823-.901-1.823-2.232 0-2.626 2.291-3.102 4.46-3.102v.667Zm3.026 7.51a.613.613 0 0 1-.709.073c-.996-.849-1.173-1.243-1.722-2.054-1.645 1.725-2.81 2.24-4.945 2.24-2.524 0-4.49-1.598-4.49-4.8 0-2.501 1.32-4.204 3.199-5.036 1.628-.737 3.903-.867 5.641-1.07v-.4c0-.732.055-1.599-.362-2.232-.368-.567-1.068-.801-1.684-.801-1.144 0-2.165.602-2.414 1.85-.05.277-.249.55-.519.563L.95 5.361C.705 5.304.435 5.1.502 4.715 1.173 1.092 4.36 0 7.212 0c1.46 0 3.367.399 4.519 1.534 1.46 1.4 1.32 3.268 1.32 5.3v4.801c0 1.443.583 2.076 1.132 2.856.194.277.236.611-.009.82-.612.523-1.7 1.498-2.3 2.044l-.008-.008" clip-rule="evenodd"/>
  </g>
  <defs>
    <clipPath id="a">
      <path fill="#fff" d="M0 0h96.941v30H0z"/>
    </clipPath>
  </defs>
</svg>
