<svg xmlns="http://www.w3.org/2000/svg" width="158" height="31" fill="none" viewBox="0 0 158 31">
  <path fill="#969696" fill-rule="evenodd" d="M11.775 18.003a.653.653 0 0 0 .748-.074l.008.007c.631-.566 1.781-1.57 2.428-2.115.258-.211.212-.556.01-.845l-.185-.254c-.518-.7-1.01-1.364-1.01-2.697v-4.96l.002-.509c.011-1.904.021-3.64-1.394-4.97C11.167.413 9.152 0 7.612 0 4.6 0 1.237 1.131.532 4.875c-.075.398.213.607.472.665l3.07.334c.286-.014.494-.298.55-.585C4.886 4 5.96 3.377 7.167 3.377c.652 0 1.393.242 1.778.827.398.587.391 1.367.386 2.068l-.002.241v.414c-.285.032-.583.062-.89.094-1.674.17-3.612.368-5.063 1.009C1.392 8.89 0 10.649 0 13.233c0 3.308 2.073 4.963 4.74 4.963 2.25 0 3.482-.535 5.22-2.315.088.128.167.246.24.357.413.615.684 1.02 1.575 1.765ZM9.33 10.33v-.852c-2.29 0-4.71.493-4.71 3.205 0 1.378.712 2.309 1.926 2.309.889 0 1.689-.551 2.192-1.447.595-1.055.594-2.046.592-3.215Zm44.703 7.6a.653.653 0 0 1-.748.074c-.892-.745-1.163-1.15-1.575-1.766l-.24-.356c-1.739 1.78-2.97 2.315-5.22 2.315-2.667 0-4.74-1.655-4.74-4.963 0-2.584 1.392-4.342 3.376-5.203 1.452-.641 3.39-.839 5.064-1.01.307-.03.605-.061.89-.093v-.414l.002-.24c.005-.701.012-1.482-.387-2.069-.385-.585-1.125-.827-1.777-.827-1.208 0-2.281.623-2.545 1.912-.055.287-.263.571-.55.585l-3.07-.334c-.258-.058-.546-.267-.472-.665C42.747 1.131 46.11 0 49.123 0c1.54 0 3.554.414 4.768 1.585 1.416 1.33 1.405 3.067 1.394 4.97l-.002.51v4.96c0 1.332.492 1.997 1.01 2.696.061.084.124.168.186.255.202.29.248.634-.01.845a138.71 138.71 0 0 0-2.429 2.115l-.007-.007Zm-3.193-7.763v.161c.002 1.17.003 2.162-.592 3.217-.504.896-1.303 1.447-2.192 1.447-1.215 0-1.925-.93-1.925-2.309 0-2.712 2.419-3.205 4.71-3.205v.69Zm86.41 7.22c0 .32.262.578.591.588h1.385a.596.596 0 0 0 .568-.587l.001-9.419c0-1.444.148-2.854.916-3.989.597-.893 1.606-1.66 2.603-1.716.961.051 1.879.693 2.389 1.682.444.86.503 1.994.503 2.957l.006 10.485c0 .32.263.577.592.587h1.383a.602.602 0 0 0 .564-.501V8.39c-.001-1.572-.002-2.807.827-4.17.656-1.095 1.67-1.901 2.776-1.957.99.05 1.91.728 2.393 1.82.426.96.421 2.06.415 3.122v.004l-.001.347v9.91c.04.283.286.499.585.508h1.391a.597.597 0 0 0 .569-.587V7.376c.001-1.577.003-3.415-.709-4.806-.769-1.513-2.247-2.51-3.783-2.51l-.127.001-.113-.001c-2.174 0-3.823 1.56-4.697 3.756-.562-2.225-2.073-3.756-4.137-3.756l-.118.001-.121-.001c-1.947 0-3.487 1.479-4.313 3.367V1.044a.601.601 0 0 0-.609-.538h-1.162a.597.597 0 0 0-.567.538v16.343Zm-119.245.584h3.166a.599.599 0 0 0 .61-.588l.002-8.662v-.205c-.003-1.87-.007-4.3 2.187-4.3 2.019 0 1.985 2.166 1.957 3.928v.001c-.003.199-.006.392-.006.576l.003 8.663c0 .313.251.566.569.587h3.162a.6.6 0 0 0 .611-.588v-8.88c-.002-.915-.005-2.149.296-2.912.325-.825 1.123-1.341 1.891-1.341.917 0 1.626.31 1.862 1.41.12.528.104 1.751.094 2.565v.001c-.003.193-.005.362-.005.494v8.663c0 .313.252.566.57.587h3.162c.337 0 .61-.262.61-.588L38.75 7.07c0-.253.005-.511.01-.771.025-1.546.052-3.176-.808-4.353C37.064.708 35.616.158 34.286.158c-1.862 0-3.606.963-4.375 3.026-.886-2.063-2.128-3.026-4.108-3.026-1.95 0-3.399.963-4.168 3.026h-.059V1.051A.598.598 0 0 0 21 .502h-2.948a.599.599 0 0 0-.611.589l-.003 16.34a.599.599 0 0 0 .567.539ZM59.137 3.386V1.051a.575.575 0 0 1 .59-.591L70.133.459c.333 0 .6.243.6.59V3.05c-.002.336-.284.774-.784 1.47l-5.39 7.74c2-.047 4.117.253 5.936 1.281.41.232.52.575.552.912v2.49c0 .344-.374.742-.766.535-3.204-1.687-7.455-1.872-10.997.02-.362.194-.741-.197-.741-.54v-2.37c0-.378.007-1.026.387-1.604l6.246-9.01-5.438-.001a.58.58 0 0 1-.602-.588Zm-.124 17.783c1.921-.23 6.172-.742 6.932.235.76.979-.844 5.007-1.562 6.811l-.002.004c-.217.545.25.765.74.352 3.19-2.682 4.013-8.302 3.36-9.114-.648-.804-6.223-1.498-9.626.905-.523.37-.433.879.147.809l.011-.002ZM41.488 31c7.42 0 16.038-2.346 21.983-6.757.983-.73.14-1.824-.864-1.395-6.664 2.841-13.907 4.216-20.495 4.216-9.767 0-19.223-2.694-26.87-7.169-.668-.391-1.164.3-.608.804C21.722 27.135 31.087 31 41.488 31ZM79.724 3.493c-2.335 0-2.483 3.198-2.483 5.193v.069c0 2.022-.001 6.19 2.454 6.19 2.453 0 2.57-3.44 2.57-5.537 0-1.375-.058-3.026-.472-4.333-.355-1.135-1.064-1.582-2.069-1.582Zm-.03-3.335c4.7 0 7.242 4.058 7.242 9.216 0 4.985-2.807 8.94-7.242 8.94-4.61 0-7.123-4.058-7.123-9.112 0-5.09 2.542-9.044 7.124-9.044ZM89.877 17.97h3.155a.608.608 0 0 0 .616-.588v-8.8c0-1.1.06-2.097.503-3.094.354-.79 1.064-1.307 1.832-1.307 2.018 0 1.999 2.223 1.984 3.972v.002l-.003.428v8.872c.034.28.27.496.564.515h3.174a.602.602 0 0 0 .607-.515V7.173c0-1.582 0-3.783-.828-5.09-.886-1.41-2.276-1.925-3.695-1.925-2.187 0-3.428 1.066-4.315 3.301h-.06v-2.5a.602.602 0 0 0-.562-.457h-2.937a.6.6 0 0 0-.608.534l.005 16.347c0 .313.25.566.568.587Zm14.417-1.297c0-.822.698-1.489 1.559-1.489s1.558.667 1.558 1.49c0 .821-.697 1.488-1.558 1.488-.861 0-1.559-.667-1.559-1.489Zm24.337-.592c1.478-.049 2.644-.97 3.334-2.508.62-1.375.739-2.957.739-4.47 0-1.65-.178-3.37-.946-4.78-.688-1.233-1.875-2.014-3.132-2.06-1.4.05-2.647 1.002-3.279 2.473-.561 1.272-.739 2.957-.739 4.367 0 1.582.207 3.404.858 4.78.631 1.302 1.849 2.151 3.165 2.198Zm-.331 2.237c-4.493 0-6.502-4.608-6.502-9.215 0-4.849 2.364-9.043 6.886-9.043h.239c4.405 0 6.592 4.47 6.592 9.077 0 4.883-2.424 9.181-6.976 9.181l-.116-.001-.123.001Zm-10.525-6.101c-.439 2.107-1.498 3.732-3.515 3.795-3.035-.1-3.755-4.16-3.755-6.944 0-2.884.863-6.64 3.898-6.737 1.906.063 3.049 1.655 3.386 3.656.044.282.236.536.526.578l1.398.016c.291-.034.54-.267.54-.536-.48-3.586-2.691-5.985-5.788-5.985h-.239c-4.463 0-6.414 4.641-6.414 9.18 0 4.574 1.921 9.078 6.385 9.078l.115-.001.124.001c3.066 0 5.218-2.435 5.834-6.018.023-.295-.266-.537-.58-.554l-1.334.006c-.294 0-.495.202-.581.465Z" clip-rule="evenodd"/>
</svg>
