<svg xmlns="http://www.w3.org/2000/svg" width="114" height="70" fill="none" viewBox="0 0 114 70">
  <path fill="#3B3A40" fill-rule="evenodd" d="M16.482 29.2a.305.305 0 0 1 .41.135l5.245 10.433a.53.53 0 0 1 .03.15.337.337 0 0 1-.28.328l-.054.004h-3.805a.33.33 0 0 1-.26-.138l-.028-.043-1.834-3.643a7.153 7.153 0 0 1 .312-6.898l.112-.178a.362.362 0 0 1 .152-.15Zm48.731 1.722.165-.002a6.27 6.27 0 0 1 2.777.556l.202.095v2.224c-.968-.476-1.996-.81-3.038-.81-.864 0-1.326.238-1.326.794 0 .413.304.723 1.483 1.015l.14.034c2.31.527 3.16 1.295 3.201 2.894l.001.115-6.94-4.058v.026l-.044-.026c0-1.737 1.15-2.808 3.38-2.858Zm-3.335 2.883.001.077c.03 1.366.669 2.452 3.023 2.948l.145.032c1.32.303 1.597.557 1.597 1.048 0 .493-.298.826-1.31.826a6.915 6.915 0 0 1-3.5-1.017v2.304l.088.046c.719.369 1.666.764 3.382.764l.169-.002c2.393-.053 3.36-1.245 3.36-2.985l-.015-.009v.01l-6.94-4.042Zm12.403-2.884.174-.001c1.03-.03 2.045.16 2.996.556l.218.095v2.224c-1.044-.476-2.153-.81-3.278-.81-.932 0-1.43.238-1.43.794 0 .414.329.724 1.606 1.016l.146.033c2.554.54 3.454 1.334 3.454 3.018 0 1.78-1.077 2.972-3.84 2.987-1.854 0-2.876-.396-3.652-.766l-.091-.044V37.72a7.89 7.89 0 0 0 3.775 1.017c1.093 0 1.414-.333 1.414-.826 0-.491-.3-.745-1.728-1.049l-.152-.031c-2.603-.509-3.261-1.637-3.261-3.05 0-1.739 1.241-2.81 3.65-2.859Zm-60.005 3.614a.309.309 0 0 0-.426-.058.225.225 0 0 0-.088.116l-2.647 5.21-.02.053a.304.304 0 0 0 .167.365.443.443 0 0 0 .147.029h3.69l.05-.004c.1-.014.192-.07.23-.17.78-1.615.294-4.069-1.103-5.54Zm86.221.655-2.274-4.273h-3.14v9.333h1.996v-7.112l.835 1.882 2.83 5.23h2.506v-9.333h-1.995v6.032l-.758-1.759ZM82.25 30.917v9.333h-2.333v-9.333h2.333Zm-35.108 7.312v-7.312h-2.225v9.333h4.545l.705-2.02h-3.025Zm-3.975-7.312v2.02h-2.509v7.313h-2.133v-7.312h-2.358v-2.021h7Zm-7 9.333-3.24-9.333h-2.854l-3.24 9.333h2.472l.46-1.574.214.06a6.036 6.036 0 0 0 3.256-.06l.46 1.574h2.472Zm20.677-9.333 3.24 9.333h-2.472l-.46-1.574a6.036 6.036 0 0 1-3.256.06l-.214-.06-.46 1.574H50.75l3.24-9.333h2.854Zm36.49 9.333-3.24-9.333H87.24L84 40.25h2.472l.46-1.574.214.06a6.036 6.036 0 0 0 3.255-.06l.461 1.574h2.472Zm-63.031-3.425 1.197-4.073 1.197 4.073-.199.056a4.132 4.132 0 0 1-.998.114c-.399 0-.798-.062-1.197-.17Zm25.114-4.073-1.198 4.073c.4.108.799.17 1.198.17.332 0 .665-.032.998-.114l.2-.056-1.198-4.073Zm32.052 4.073 1.198-4.073 1.197 4.073-.2.056a4.132 4.132 0 0 1-.997.114c-.4 0-.798-.062-1.198-.17Z" clip-rule="evenodd"/>
</svg>
