<svg xmlns="http://www.w3.org/2000/svg" width="67" height="65" fill="none" viewBox="0 0 67 65">
  <path stroke="#2E4FD7" stroke-linejoin="round" stroke-width="2" d="M65.49 32.5c0 17.383-14.31 31.5-31.998 31.5C15.806 64 1.494 49.883 1.494 32.5S15.806 1 33.492 1C51.18 1 65.49 15.117 65.49 32.5Z"/>
  <path fill="#2E4FD7" d="M51.259 50H15.723V15h35.536z" opacity=".01"/>
  <path fill="#2E4FD7" d="M27.57 38.64V26.36a2.564 2.564 0 0 1 1.48-2.318 3.148 3.148 0 0 1 3.272.379l7.552 6.14c.571.487.9 1.195.9 1.939a2.55 2.55 0 0 1-.9 1.94l-7.552 6.14a3.148 3.148 0 0 1-3.272.378 2.564 2.564 0 0 1-1.48-2.318Z"/>
</svg>
