<svg xmlns="http://www.w3.org/2000/svg" width="40" height="40" fill="none" viewBox="0 0 40 40">
  <path fill="#fff" d="M0 0h40v40H0z" opacity=".01"/>
  <path fill="#fff" fill-rule="evenodd" d="m25.083 8.617 10.7 10.683a3.033 3.033 0 0 1 0 4.283l-12.2 12.2a3.033 3.033 0 0 1-2.133.884 3.067 3.067 0 0 1-2.15-.884l-10.683-10.7a1.666 1.666 0 0 1-.484-1.016L6.667 8.483A1.667 1.667 0 0 1 7.15 7.15c.35-.352.84-.529 1.333-.483l15.584 1.466c.384.039.744.21 1.016.484Zm-8.541 11.226a2.5 2.5 0 0 0 2.725-.543v-.033a2.483 2.483 0 0 0 0-3.5 2.5 2.5 0 1 0-2.725 4.076Z" clip-rule="evenodd"/>
</svg>
