<svg xmlns="http://www.w3.org/2000/svg" width="44" height="44" fill="none" viewBox="0 0 44 44">
  <path fill="#191919" d="M44 44H0V0h44z" opacity=".01"/>
  <path fill="#191919" d="m5.94 13.365 15.62 8.488a.935.935 0 0 0 .88 0l15.62-8.488a.806.806 0 0 0-.092-1.485L22.348 5.5a.917.917 0 0 0-.696 0l-15.62 6.38a.807.807 0 0 0-.092 1.485Z"/>
  <path fill="#191919" d="m37.968 19.543-3.355-1.43-12.173 6.619a.935.935 0 0 1-.88 0L9.387 18.113l-3.355 1.43a.88.88 0 0 0 0 1.559l15.62 8.983c.27.165.61.165.88 0l15.62-8.983a.88.88 0 0 0-.184-1.559Z"/>
  <path fill="#191919" d="m37.968 27.683-2.86-1.246L22.44 33.33a.935.935 0 0 1-.88 0L8.892 26.437l-2.86 1.246a.898.898 0 0 0 0 1.595l15.62 9.167a.935.935 0 0 0 .88 0l15.62-9.167a.898.898 0 0 0-.184-1.595Z"/>
</svg>
