<svg xmlns="http://www.w3.org/2000/svg" width="44" height="44" fill="none" viewBox="0 0 44 44">
  <path fill="#191919" d="M44 0v44H0V0z" opacity=".01"/>
  <path fill="#191919" d="M32.193 38.5a1.834 1.834 0 0 1-.843-.202L22 33.403l-9.35 4.895a1.833 1.833 0 0 1-2.658-1.943l1.833-10.322L4.272 18.7a1.833 1.833 0 0 1-.459-1.833 1.833 1.833 0 0 1 1.485-1.247l10.45-1.522 4.602-9.405a1.833 1.833 0 0 1 3.3 0l4.657 9.387 10.45 1.522a1.833 1.833 0 0 1 1.485 1.246 1.833 1.833 0 0 1-.459 1.834l-7.553 7.333 1.833 10.322a1.833 1.833 0 0 1-.733 1.833 1.834 1.834 0 0 1-1.137.33Z"/>
</svg>
