<svg xmlns="http://www.w3.org/2000/svg" width="44" height="44" fill="none" viewBox="0 0 44 44">
  <path fill="#191919" d="M0 0h44v44H0z" opacity=".01"/>
  <path fill="#191919" d="M16.5 5.5H9.167A3.667 3.667 0 0 0 5.5 9.167V16.5a3.667 3.667 0 0 0 3.667 3.667H16.5a3.667 3.667 0 0 0 3.667-3.667V9.167A3.667 3.667 0 0 0 16.5 5.5Zm18.333 0H27.5a3.667 3.667 0 0 0-3.667 3.667V16.5a3.667 3.667 0 0 0 3.667 3.667h7.333A3.667 3.667 0 0 0 38.5 16.5V9.167A3.667 3.667 0 0 0 34.833 5.5ZM16.5 23.833H9.167A3.667 3.667 0 0 0 5.5 27.5v7.333A3.667 3.667 0 0 0 9.167 38.5H16.5a3.667 3.667 0 0 0 3.667-3.667V27.5a3.667 3.667 0 0 0-3.667-3.667Zm18.333 0H27.5a3.667 3.667 0 0 0-3.667 3.667v7.333A3.667 3.667 0 0 0 27.5 38.5h7.333a3.667 3.667 0 0 0 3.667-3.667V27.5a3.667 3.667 0 0 0-3.667-3.667Z"/>
</svg>
