<svg xmlns="http://www.w3.org/2000/svg" width="142" height="29" fill="none" viewBox="0 0 142 29">
  <path fill="#969696" fill-rule="evenodd" d="M13.284 4.8V.502H9.598S7.064.35 5.145 2.114c-1.92 1.765-1.46 3.913-1.46 3.913v3.912H0v4.604h3.532V27.66h5.222V14.602h3.993l.537-4.663h-4.53V6.564c0-2.072 2.15-1.765 2.15-1.765h2.38Zm8.928 19.293c1.867 0 3.38-1.673 3.38-3.452v-3.375c0-1.78-1.513-3.452-3.38-3.452-1.868 0-3.382 1.672-3.382 3.452v3.375c0 1.78 1.514 3.452 3.382 3.452Zm3.662-11.736v-2.34h5.033V27.66h-5.03l.035-2.276c-1.335 1.781-3.214 2.89-5.295 2.89-4.05 0-7.333-3.605-7.333-9.378 0-5.811 3.283-9.379 7.333-9.379 2.062 0 3.925 1.088 5.257 2.84Zm46.398 4.794c0-1.78 1.514-3.453 3.381-3.453 1.868 0 3.382 1.673 3.382 3.453v3.375c0 1.78-1.514 3.452-3.382 3.452-1.867 0-3.381-1.673-3.381-3.452V17.15Zm-.281 10.624v-2.34c1.332 1.751 3.195 2.84 5.257 2.84 4.05 0 7.333-3.568 7.333-9.38 0-5.772-3.283-9.378-7.333-9.378-2.081 0-3.96 1.11-5.295 2.89L71.988.754l-5.23.588v26.353l5.233.08ZM38.24 19.008c0 5.217 4.031 4.987 4.031 4.987 2.726.038 3.686-.92 3.686-.92l1.267 3.797c-2.188 1.61-8.792 1.879-11.748-.844-2.559-2.357-2.558-6.175-2.511-7.162-.047-.987-.048-4.806 2.51-7.162 2.957-2.724 9.56-2.455 11.749-.844l-1.267 3.797s-.96-.959-3.686-.92c0 0-4.031-.23-4.031 4.986v.285Zm15.012-1.82s-.27-3.912 3.263-3.912c3.532 0 3.264 3.913 3.264 3.913h-6.527Zm11.326 3.568s2.111-11.047-7.986-11.107c-10.098-.06-8.639 9.995-8.639 9.995.23 6.098 3.033 7.863 7.833 8.438 4.799.576 8.446-1.265 8.446-1.265l-1.113-3.568s-3.878 1.19-6.95.92c-3.07-.268-2.84-3.413-2.84-3.413h11.249ZM94.94 24c1.917 0 3.47-1.673 3.47-3.452v-3.376c0-1.78-1.553-3.452-3.47-3.452-1.916 0-3.47 1.673-3.47 3.452v3.376c0 1.78 1.554 3.452 3.47 3.452Zm-8.74-4.984c0-5.296 2.212-9.258 8.785-9.258 6.276 0 8.786 4.145 8.786 9.258 0 6.001-3.933 9.258-8.786 9.258-5.934 0-8.785-3.64-8.785-9.258Zm31.611 1.532c0 1.78-1.554 3.452-3.47 3.452-1.916 0-3.47-1.673-3.47-3.452v-3.376c0-1.78 1.554-3.452 3.47-3.452 1.916 0 3.47 1.673 3.47 3.452v3.376Zm-3.425-10.79c-6.574 0-8.786 3.962-8.786 9.258 0 5.619 2.851 9.258 8.786 9.258 4.852 0 8.785-3.257 8.785-9.258 0-5.113-2.51-9.258-8.785-9.258Zm21.463 9.096 5.744 8.883h-5.446l-5.786-9.037v9.037h-5.275V1.215l5.275-.553v17.26l5.361-7.952h5.616l-5.489 8.884Z" clip-rule="evenodd"/>
</svg>
