<svg xmlns="http://www.w3.org/2000/svg" width="91" height="30" fill="none" viewBox="0 0 91 30">
  <g clip-path="url(#a)">
    <path fill="#EA4335" d="M38.814 15.385c0 4.164-3.284 7.232-7.314 7.232s-7.314-3.068-7.314-7.232c0-4.194 3.284-7.233 7.314-7.233s7.314 3.04 7.314 7.233Zm-3.202 0c0-2.602-1.903-4.383-4.112-4.383s-4.112 1.78-4.112 4.383c0 2.576 1.903 4.382 4.112 4.382s4.112-1.81 4.112-4.382Z"/>
    <path fill="#FBBC05" d="M54.592 15.385c0 4.164-3.283 7.232-7.314 7.232-4.03 0-7.314-3.068-7.314-7.232 0-4.19 3.284-7.233 7.314-7.233s7.314 3.04 7.314 7.233Zm-3.201 0c0-2.602-1.904-4.383-4.113-4.383-2.209 0-4.112 1.78-4.112 4.383 0 2.576 1.903 4.382 4.112 4.382 2.21 0 4.113-1.81 4.113-4.382Z"/>
    <path fill="#4285F4" d="M69.713 8.59v12.984c0 5.341-3.175 7.523-6.929 7.523-3.534 0-5.66-2.345-6.463-4.262l2.788-1.151c.496 1.177 1.713 2.566 3.672 2.566 2.403 0 3.892-1.47 3.892-4.24v-1.04h-.112c-.717.878-2.097 1.644-3.84 1.644-3.645 0-6.985-3.15-6.985-7.203 0-4.083 3.34-7.259 6.986-7.259 1.739 0 3.12.766 3.84 1.617h.11V8.592h3.041V8.59ZM66.9 15.41c0-2.546-1.713-4.408-3.892-4.408-2.21 0-4.06 1.862-4.06 4.409 0 2.52 1.85 4.356 4.06 4.356 2.179 0 3.892-1.836 3.892-4.356Z"/>
    <path fill="#34A853" d="M74.726.978v21.196h-3.123V.978h3.123Z"/>
    <path fill="#EA4335" d="m86.896 17.765 2.485 1.644c-.802 1.177-2.735 3.205-6.075 3.205-4.141 0-7.235-3.176-7.235-7.232 0-4.302 3.12-7.233 6.877-7.233 3.784 0 5.634 2.987 6.24 4.601l.331.822-9.746 4.004c.746 1.451 1.906 2.191 3.533 2.191 1.63 0 2.762-.795 3.59-2.002Zm-7.65-2.602 6.516-2.684c-.358-.903-1.437-1.532-2.705-1.532-1.628 0-3.892 1.425-3.81 4.216Z"/>
    <path fill="#4285F4" d="M12.366 13.503v-3.068h10.423c.102.535.155 1.167.155 1.852 0 2.302-.635 5.149-2.68 7.177-1.988 2.055-4.53 3.15-7.895 3.15-6.24 0-11.486-5.041-11.486-11.23C.883 5.194 6.13.154 12.37.154c3.451 0 5.91 1.343 7.758 3.094l-2.183 2.165c-1.325-1.233-3.12-2.191-5.578-2.191-4.557 0-8.12 3.642-8.12 8.162 0 4.52 3.563 8.162 8.12 8.162 2.955 0 4.638-1.177 5.716-2.247.874-.867 1.45-2.106 1.676-3.799l-7.392.003Z"/>
  </g>
  <defs>
    <clipPath id="a">
      <path fill="#fff" d="M.765 0h89.412v30H.765z"/>
    </clipPath>
  </defs>
</svg>
