<svg xmlns="http://www.w3.org/2000/svg" width="32" height="32" fill="none" viewBox="0 0 32 32">
  <circle cx="16" cy="16" r="16" fill="#E7EBFC"/>
  <path fill="#2E4FD7" d="M8 8h16v16H8" opacity=".01"/>
  <path fill="#2E4FD7" d="M19.666 17.334a3.673 3.673 0 0 1-3 2.62A4.1 4.1 0 0 1 12 16.32 4 4 0 0 1 16 12c.518 0 1.032.1 1.513.293.157.071.342.01.427-.14l.96-1.766a.347.347 0 0 0-.154-.467 6.667 6.667 0 0 0-9.413 6.274 6.747 6.747 0 0 0 6.38 6.473 6.667 6.667 0 0 0 6.953-6.32v-1.334a.34.34 0 0 0-.333-.333h-6a.333.333 0 0 0-.333.334v2c0 .184.149.333.333.333h3.333"/>
</svg>
