<svg xmlns="http://www.w3.org/2000/svg" width="95" height="31" fill="none" viewBox="0 0 95 31">
  <path fill="#969696" fill-rule="evenodd" d="m23.503 12.78-.002.067h.003c0-.137 0-.114-.001-.068Zm-.002.067c0 .02-.001.027-.002 0h-.002c0 3.49-1.164 6.278-3.167 8.225-2.002 1.945-4.798 3.004-8.07 3.038a9.516 9.516 0 0 0-.16.005l.071.001a12.072 12.072 0 0 1-8.63-3.533A12.01 12.01 0 0 1 0 12.056c0-3.327 1.35-6.34 3.54-8.524A12.077 12.077 0 0 1 12.1 0c1.576 0 3.083.3 4.468.843a12.17 12.17 0 0 1 3.845 2.429l-2.364 2.494A8.693 8.693 0 0 0 12.1 3.433c-2.399 0-4.558.96-6.115 2.512a8.593 8.593 0 0 0-2.527 6.11c0 2.392.964 4.554 2.528 6.115a8.619 8.619 0 0 0 6.114 2.515c.267 0 .135.003.058.005-.054.001-.08.002.075 0 2.356-.024 4.324-.742 5.68-2.059 1.057-1.028 1.768-2.447 2.029-4.217h-7.747v-3.433h11.283l.018 1.703.003.163h.002Zm9.11-1.123c1.242 0 2.365.514 3.177 1.346a4.668 4.668 0 0 1 1.315 3.272c0 1.283-.503 2.44-1.315 3.273a4.423 4.423 0 0 1-6.353 0 4.668 4.668 0 0 1-1.315-3.273c0-1.283.502-2.44 1.315-3.272a4.423 4.423 0 0 1 3.176-1.347Zm5.551-.824a7.892 7.892 0 0 0-5.55-2.264c-2.167 0-4.13.865-5.551 2.264a7.614 7.614 0 0 0-2.3 5.442c0 2.12.879 4.045 2.3 5.443a7.892 7.892 0 0 0 5.55 2.263 7.891 7.891 0 0 0 5.551-2.263 7.613 7.613 0 0 0 2.3-5.443c0-2.12-.879-4.045-2.3-5.442Zm14.51 2.17a4.423 4.423 0 0 0-3.177-1.347 4.423 4.423 0 0 0-3.176 1.347 4.67 4.67 0 0 0-1.316 3.272c0 1.283.503 2.44 1.316 3.273a4.423 4.423 0 0 0 6.352 0 4.668 4.668 0 0 0 1.316-3.273c0-1.283-.503-2.44-1.316-3.272Zm-3.177-4.434a7.89 7.89 0 0 1 5.551 2.264 7.614 7.614 0 0 1 2.3 5.442c0 2.12-.88 4.045-2.3 5.443a7.892 7.892 0 0 1-5.55 2.263 7.892 7.892 0 0 1-5.552-2.263 7.614 7.614 0 0 1-2.3-5.443c0-2.12.88-4.045 2.3-5.442a7.893 7.893 0 0 1 5.551-2.264Zm16.75 3.088c1.182 0 2.252.514 3.025 1.346.774.832 1.253 1.99 1.253 3.272 0 1.283-.479 2.44-1.253 3.273-.773.832-1.843 1.43-3.025 1.43-2.518 0-4.279-2.11-4.279-4.703 0-1.283.479-2.44 1.253-3.272.773-.832 1.843-1.347 3.026-1.347Zm3.953-1.312c-1.152-1.109-2.433-1.776-4.547-1.776-3.54 0-7.102 3.423-7.102 7.706 0 2.12.795 4.045 2.08 5.443 1.287 1.398 3.39 2.263 5.35 2.263 1.723 0 3.05-.668 4.22-1.78v1.688c0 2.5-2.068 4.016-3.716 4.016-2.326 0-3.57-.943-4.403-2.774l-2.944 1.317c.702 1.541 1.724 2.636 2.923 3.368 1.347.823 2.889 1.117 4.424 1.117 1.681 0 3.38-.704 4.643-1.82 1.313-1.159 2.282-3.38 2.282-5.427V9.07h-3.21v1.341Zm5.285 13.195h3.314V.992h-3.314v22.615Zm16.345-4.688c-1.742 2.883-6.34 2.848-7.644-.237 2.008-.803 4.01-1.615 6.013-2.428 1.49-.604 2.978-1.208 4.47-1.808-1.157-2.96-2.74-4.662-4.69-5.365-3.001-1.083-5.912-.074-7.798 1.911-2.313 2.433-3.027 7.565.31 10.91 1.366 1.368 3.194 2.213 5.465 2.21 2.55-.013 4.892-1.108 6.499-3.447l-2.625-1.746Zm-1.113-5.668-7.058 2.822c-.104-1.484.7-2.797 1.617-3.566 2.385-1.616 4.195-.846 5.441.744Z" clip-rule="evenodd"/>
</svg>
