<svg xmlns="http://www.w3.org/2000/svg" width="54" height="54" fill="none" viewBox="0 0 54 54">
  <circle cx="27" cy="27" r="27" fill="#E7EBFC"/>
  <path fill="#2E4FD7" d="M39 39H15V15h24z" opacity=".01"/>
  <path fill="#2E4FD7" d="m18.24 22.29 8.52 4.63c.15.08.33.08.48 0l8.52-4.63a.44.44 0 0 0-.05-.81L27.19 18a.5.5 0 0 0-.38 0l-8.52 3.48a.44.44 0 0 0-.05.81Z"/>
  <path fill="#2E4FD7" d="m35.71 25.66-1.83-.78-6.64 3.61a.51.51 0 0 1-.48 0l-6.64-3.61-1.83.78a.48.48 0 0 0 0 .85l8.52 4.9a.46.46 0 0 0 .48 0l8.52-4.9a.48.48 0 0 0-.1-.85Z"/>
  <path fill="#2E4FD7" d="m35.71 30.1-1.56-.68-6.91 3.76a.51.51 0 0 1-.48 0l-6.91-3.76-1.56.68a.49.49 0 0 0 0 .87l8.52 5c.15.08.33.08.48 0l8.52-5a.49.49 0 0 0-.1-.87Z"/>
</svg>
