<svg xmlns="http://www.w3.org/2000/svg" width="32" height="32" fill="none" viewBox="0 0 32 32">
  <circle cx="16" cy="16" r="16" fill="#E7EBFC"/>
  <path fill="#2E4FD7" d="M24 23H8V7h16z" opacity=".01"/>
  <path fill="#2E4FD7" d="M18.1 12.6a3.887 3.887 0 0 0-3.9 3.88v3.92a.6.6 0 0 0 .6.6h1.4a.6.6 0 0 0 .6-.6v-3.92a1.294 1.294 0 0 1 1.433-1.287 1.335 1.335 0 0 1 1.167 1.334V20.4a.6.6 0 0 0 .6.6h1.4a.6.6 0 0 0 .6-.6v-3.92a3.887 3.887 0 0 0-3.9-3.88Z"/>
  <rect width="3" height="7.8" x="10" y="13.2" fill="#2E4FD7" rx=".9"/>
  <circle cx="11.5" cy="10.5" r="1.5" fill="#2E4FD7"/>
</svg>
