<svg xmlns="http://www.w3.org/2000/svg" width="40" height="40" fill="none" viewBox="0 0 40 40">
  <path fill="#fff" d="M0 0h40v40H0z" opacity=".01"/>
  <path fill="#fff" d="M15 5H8.333A3.333 3.333 0 0 0 5 8.333V15a3.333 3.333 0 0 0 3.333 3.333H15A3.333 3.333 0 0 0 18.333 15V8.333A3.333 3.333 0 0 0 15 5Zm16.667 0H25a3.333 3.333 0 0 0-3.333 3.333V15A3.333 3.333 0 0 0 25 18.333h6.667A3.333 3.333 0 0 0 35 15V8.333A3.333 3.333 0 0 0 31.667 5ZM15 21.667H8.333A3.333 3.333 0 0 0 5 25v6.667A3.333 3.333 0 0 0 8.333 35H15a3.333 3.333 0 0 0 3.333-3.333V25A3.333 3.333 0 0 0 15 21.667Zm16.667 0H25A3.333 3.333 0 0 0 21.667 25v6.667A3.333 3.333 0 0 0 25 35h6.667A3.333 3.333 0 0 0 35 31.667V25a3.333 3.333 0 0 0-3.333-3.333Z"/>
</svg>
