<svg xmlns="http://www.w3.org/2000/svg" width="142" height="37" fill="none" viewBox="0 0 142 37">
  <path fill="#969696" fill-rule="evenodd" d="M139.132.249h-30.618c-1.463 0-2.652 1.157-2.652 2.583v30.68c0 1.426 1.189 2.585 2.652 2.585h30.618c1.466 0 2.66-1.159 2.66-2.586V2.831c0-1.425-1.194-2.582-2.66-2.582Zm-25.277 4.935a3.087 3.087 0 0 1 3.088 3.082 3.087 3.087 0 0 1-3.088 3.084 3.087 3.087 0 0 1-3.091-3.084c0-1.7 1.383-3.082 3.091-3.082Zm2.663 25.612h-5.329V13.688h5.329v17.108Zm3.343-17.108h5.111v2.338h.071c.712-1.345 2.45-2.763 5.043-2.763 5.396 0 6.392 3.544 6.392 8.15v9.383h-5.325v-8.32c0-1.983-.037-4.535-2.769-4.535-2.773 0-3.199 2.161-3.199 4.392v8.463h-5.324V13.688ZM20.916 5.177a3.088 3.088 0 0 1 3.09 3.082 3.085 3.085 0 0 1-3.09 3.08 3.085 3.085 0 0 1-3.088-3.08 3.087 3.087 0 0 1 3.088-3.082Zm-2.664 25.612h5.328V13.68h-5.328v17.108ZM0 5.55v25.245h15.804v-5.103H5.543V5.55H0Zm51.173-.002h-5.325v25.247h5.325v-8.457h.07l5.652 8.457h6.694l-6.84-9.202 6.986-7.92h-6.529l-6.033 6.963V5.549Zm-24.647 8.134h5.114v2.339h.07c.71-1.347 2.451-2.764 5.043-2.764 5.399 0 6.393 3.544 6.393 8.149v9.382h-5.327V22.47c0-1.984-.037-4.535-2.772-4.535-2.769 0-3.194 2.162-3.194 4.394v8.46h-5.327V13.683Zm45.65 17.547c2.772 0 5.576-1.241 7.28-3.403l-3.728-2.729c-.888 1.205-2.059 2.091-3.8 2.091-2.06 0-3.59-1.31-4.012-3.33h12.358v-1.666c0-5.491-3.122-9.034-8.098-9.034-5.325 0-9.587 3.543-9.587 9.034 0 5.492 4.262 9.037 9.587 9.037Zm-.498-14.244c1.92 0 3.305 1.488 3.27 3.26h-7.032c.14-1.666 1.42-3.26 3.762-3.26Zm28.857 13.8h-4.902v-2.269h-.07c-.819 1.24-2.877 2.694-5.292 2.694-5.116 0-8.489-3.683-8.489-8.893 0-4.784 2.983-9.178 7.884-9.178 2.203 0 4.263.602 5.47 2.268h.07v-9.86h5.329v25.238Zm-9.166-12.968c-2.662 0-4.26 1.773-4.26 4.357 0 2.59 1.598 4.358 4.26 4.358 2.665 0 4.264-1.769 4.264-4.358 0-2.584-1.599-4.357-4.264-4.357Z" clip-rule="evenodd"/>
</svg>
