<svg xmlns="http://www.w3.org/2000/svg" width="105" height="31" fill="none" viewBox="0 0 105 31">
  <path fill="#969696" fill-rule="evenodd" d="M52.411 2.153h-3.81v4.66h-2.053v3.362h2.053v11.77h3.81v-11.77h2.084V6.813h-2.084v-4.66ZM42.977 0c-1.4 0-2.5 1.092-2.5 2.507 0 1.386 1.1 2.478 2.5 2.478 1.458 0 2.56-1.092 2.56-2.478 0-1.415-1.102-2.507-2.56-2.507Zm60.566 6.46a1.14 1.14 0 0 1-1.161-1.15c0-.62.507-1.122 1.161-1.122.626 0 1.131.502 1.131 1.121 0 .65-.505 1.151-1.131 1.151Zm0-2.448c-.743 0-1.338.59-1.338 1.297 0 .738.595 1.328 1.338 1.328.715 0 1.31-.59 1.31-1.328 0-.707-.595-1.297-1.31-1.297Zm-44.614 8.79c.506-2.006 2.054-3.127 4.048-3.127 1.994 0 3.482 1.091 3.958 3.127H58.93Zm4.136-6.46c-4.582 0-8.065 3.48-8.065 8.111 0 4.572 3.186 7.935 8.125 7.935 2.738 0 5.18-1.003 6.965-2.891l-2.56-2.507c-1.25 1.18-2.59 2.035-4.315 2.035-2.083 0-3.66-1.18-4.196-3.155h11.874v-.915c0-5.162-3.213-8.614-7.828-8.614Zm33.721 0c-1.874 0-3.481.707-4.612 1.917V.414h-3.81v21.531h3.81v-8.23c0-2.181 1.399-3.687 3.72-3.687 2.172 0 3.363 1.328 3.363 3.688v8.229h3.81v-8.907c0-4.188-2.65-6.697-6.28-6.697Zm6.459-1.062v-.473h.298c.239 0 .328.09.328.237 0 .148-.089.236-.328.236h-.298Zm.804-.236c0-.294-.209-.413-.506-.413h-.476v1.356h.178v-.53h.298l.328.53h.207l-.356-.559c.209-.03.327-.148.327-.384ZM80.357 10c1.608 0 2.918.826 3.93 1.977l2.648-2.596c-1.487-1.858-3.84-3.039-6.517-3.039-4.613 0-8.245 3.482-8.245 8.023 0 4.543 3.632 8.024 8.245 8.024 2.678 0 5.03-1.18 6.517-3.037l-2.648-2.596c-.983 1.12-2.322 1.975-3.959 1.975-2.44 0-4.316-1.887-4.316-4.366 0-2.478 1.875-4.365 4.346-4.365ZM41.102 21.945h3.81V6.813h-3.81v15.132Zm-27.56-3.215c-2.441 0-4.376-1.916-4.376-4.395C9.166 11.886 11.1 10 13.542 10c2.47 0 4.405 1.887 4.405 4.365 0 2.479-1.935 4.366-4.405 4.366Zm0-12.389c-4.614 0-8.245 3.482-8.245 8.023 0 4.543 3.631 8.024 8.245 8.024 4.613 0 8.243-3.481 8.243-8.024 0-4.541-3.63-8.023-8.243-8.023ZM0 21.945h3.81V.414H0v21.531Zm31.34-3.215c-2.44 0-4.375-1.916-4.375-4.395C26.965 11.886 28.9 10 31.34 10c2.47 0 4.405 1.887 4.405 4.365 0 2.479-1.935 4.366-4.405 4.366Zm8.095-8.907v-3.01h-5.358a8.495 8.495 0 0 0-2.737-.472c-4.613 0-8.244 3.482-8.244 8.023 0 4.543 3.63 8.024 8.244 8.024 4.613 0 8.244-3.481 8.244-8.024 0-1.533-.417-3.037-1.25-4.158l1.101-.383Zm-8.095 17.49c-2.44 0-4.375-1.887-4.375-4.335h-3.869c0 4.543 3.63 8.022 8.244 8.022 4.613 0 8.244-3.48 8.244-8.022h-3.87c0 2.448-1.934 4.336-4.374 4.336Z" clip-rule="evenodd"/>
</svg>
