<svg xmlns="http://www.w3.org/2000/svg" width="116" height="26" fill="none" viewBox="0 0 116 26">
  <g clip-path="url(#a)">
    <path fill="#737373" d="m41.119 14.852-.684 1.927h-.057a13.632 13.632 0 0 0-.666-1.89l-3.669-9.164H32.45v14.606h2.377v-9.013c0-.567 0-1.21-.02-2.003-.019-.397-.056-.699-.076-.926h.057c.115.567.248.983.343 1.248l4.41 10.657h1.673l4.373-10.752c.094-.246.19-.737.285-1.153h.057a134.88 134.88 0 0 0-.114 2.627v9.259h2.528V5.687h-3.46l-3.764 9.165Zm9.62-5.045h2.47v10.468h-2.47V9.807Zm1.254-4.422c-.418 0-.76.151-1.046.416a1.337 1.337 0 0 0-.437 1.02c0 .397.152.737.437 1.002a1.47 1.47 0 0 0 1.046.396c.418 0 .78-.15 1.046-.396.285-.265.437-.605.437-1.002s-.152-.737-.437-1.02c-.248-.265-.609-.416-1.046-.416Zm9.98 4.327a6.933 6.933 0 0 0-1.387-.151c-1.122 0-2.148.246-3.004.737-.855.491-1.54 1.171-1.977 2.022-.456.869-.684 1.87-.684 3.023 0 1.001.228 1.89.665 2.702.437.793 1.046 1.436 1.863 1.87.78.435 1.692.662 2.718.662 1.18 0 2.187-.246 2.985-.7l.02-.018V17.59l-.096.076c-.361.265-.78.491-1.197.624-.438.15-.837.226-1.18.226-.988 0-1.767-.283-2.319-.907-.57-.604-.855-1.436-.855-2.475 0-1.077.285-1.927.875-2.55.589-.624 1.368-.946 2.319-.946.798 0 1.616.265 2.357.794l.095.076v-2.4l-.019-.019c-.323-.132-.684-.283-1.178-.378Zm8.156-.075c-.608 0-1.179.188-1.673.585-.418.34-.703.832-.95 1.417h-.02V9.807h-2.47v10.468h2.47v-5.348c0-.907.19-1.663.609-2.21.418-.567.95-.85 1.597-.85.228 0 .456.056.741.094.266.075.456.15.59.245l.095.076V9.825l-.057-.018c-.172-.114-.514-.17-.932-.17Zm6.73-.057c-1.73 0-3.118.51-4.087 1.511-.989 1.002-1.464 2.381-1.464 4.12 0 1.625.494 2.947 1.444 3.911.951.945 2.244 1.436 3.86 1.436 1.692 0 3.041-.51 4.01-1.53.99-1.02 1.465-2.381 1.465-4.063 0-1.663-.457-2.986-1.388-3.95-.894-.963-2.205-1.435-3.84-1.435Zm1.977 8.05c-.456.585-1.179.868-2.072.868-.894 0-1.616-.283-2.13-.907-.513-.585-.76-1.436-.76-2.513 0-1.114.266-1.965.76-2.57.514-.604 1.217-.906 2.11-.906.875 0 1.56.283 2.054.869.494.586.76 1.436.76 2.55-.038 1.134-.247 2.023-.722 2.608Zm8.764-3.477c-.78-.322-1.274-.567-1.502-.775-.19-.19-.285-.454-.285-.794 0-.283.114-.567.399-.756.285-.189.608-.283 1.084-.283.418 0 .855.075 1.273.189.418.113.799.283 1.103.51l.095.076v-2.306l-.057-.018a6.89 6.89 0 0 0-1.122-.322 7.664 7.664 0 0 0-1.216-.113c-1.18 0-2.149.283-2.909.907-.76.586-1.122 1.38-1.122 2.305 0 .491.076.926.248 1.285.17.359.418.7.76.983.342.264.836.566 1.52.85.571.246 1.008.435 1.274.586.267.15.438.32.57.453.096.151.153.34.153.586 0 .699-.532 1.04-1.616 1.04-.418 0-.856-.076-1.369-.247a5.304 5.304 0 0 1-1.388-.699l-.095-.075v2.4l.057.018c.362.17.799.284 1.331.416.532.095 1.008.17 1.426.17 1.274 0 2.32-.283 3.06-.907.761-.605 1.16-1.38 1.16-2.38 0-.7-.19-1.323-.608-1.796a7.717 7.717 0 0 0-2.224-1.303Zm9.353-4.573c-1.73 0-3.118.51-4.087 1.511-.97 1.002-1.464 2.381-1.464 4.12 0 1.625.494 2.947 1.445 3.911.95.945 2.243 1.436 3.859 1.436 1.692 0 3.041-.51 4.011-1.53.989-1.02 1.464-2.381 1.464-4.063 0-1.663-.456-2.986-1.388-3.95-.894-.963-2.205-1.435-3.84-1.435Zm1.958 8.05c-.456.585-1.179.868-2.072.868-.913 0-1.616-.283-2.13-.907-.513-.585-.76-1.436-.76-2.513 0-1.114.266-1.965.76-2.57.514-.604 1.217-.906 2.11-.906.856 0 1.56.283 2.054.869.494.586.76 1.436.76 2.55 0 1.134-.247 2.023-.722 2.608Zm16.482-5.802V9.807h-2.49v-3.1l-.076.02-2.358.699-.057.019v2.362h-3.726V8.484c0-.605.152-1.077.418-1.38.267-.302.666-.453 1.16-.453.342 0 .704.076 1.103.246l.095.056V4.818l-.057-.019c-.342-.113-.799-.189-1.388-.189-.741 0-1.388.17-1.977.454a3.289 3.289 0 0 0-1.35 1.341c-.323.567-.494 1.21-.494 1.947v1.455h-1.73v2.002h1.73v8.466h2.49v-8.447h3.726v5.386c0 2.21 1.046 3.325 3.137 3.325.342 0 .703-.057 1.046-.113.361-.076.627-.17.779-.246l.019-.019V18.14l-.095.076c-.152.095-.285.17-.513.227-.19.056-.361.075-.495.075-.494 0-.836-.113-1.083-.396-.228-.265-.342-.7-.342-1.342v-4.95h2.528Z"/>
    <path fill="#F25022" d="M.588.813h11.654v11.582H.588V.813Z"/>
    <path fill="#7FBA00" d="M13.459.813h11.653v11.582H13.459V.813Z"/>
    <path fill="#00A4EF" d="M.588 13.605h11.654v11.583H.588V13.605Z"/>
    <path fill="#FFB900" d="M13.459 13.605h11.653v11.583H13.459V13.605Z"/>
  </g>
  <defs>
    <clipPath id="a">
      <path fill="#fff" d="M.588.813h114.824v24.375H.588z"/>
    </clipPath>
  </defs>
</svg>
