<svg xmlns="http://www.w3.org/2000/svg" width="94" height="32" fill="none" viewBox="0 0 94 32">
  <g clip-path="url(#a)">
    <path fill="#000" fill-rule="evenodd" d="m82.178 14.913-5.87 10.157-5.01.02 10.88-19.118L93.016 25.09h-5.088l-5.75-10.178v.001ZM66.37 20.67h5.61l-2.605 4.421h-7.312l.02-5.384V6.09h4.307l-.02 14.579ZM50.986 6.09c5.349.02 9.676 4.263 9.656 9.509-.02 5.226-4.347 9.47-9.697 9.47-5.328-.02-9.655-4.263-9.655-9.51.02-5.226 4.347-9.47 9.696-9.47Zm-.02 14.559c2.865 0 5.167-2.26 5.167-5.05.021-2.79-2.302-5.07-5.147-5.07-2.845-.02-5.169 2.26-5.169 5.05-.02 2.79 2.304 5.07 5.148 5.07h.001Zm-17.65-6.56c-.059-.786-.26-1.827-.56-2.828A14.364 14.364 0 0 0 29.61 5.7c-.761-.824-1.622-1.591-2.905-2.495a48.915 48.915 0 0 1-2.885-1.552c-.62-.353-1.362-.787-2.343-1.1A16.86 16.86 0 0 0 17.93.1c-1.16-.04-2.323.06-3.445.275-1.182.197-2.164.51-3.466.825-2.946 1.277-5.23 3.203-7.193 5.757-6.851 9.608-.66 23.067 10.779 24.658 1.883.256 3.767.157 5.549-.255l1.262-.334c.04-.02.1-.04.14-.04l1.443-.55c.08-.04.14-.06.22-.098l.601-.275a16.444 16.444 0 0 0 3.226-2.102 18.345 18.345 0 0 1-2.925 2.18l.06.04c.2-.06.38-.118.58-.157 0 0 0 .314-.039.255-.32.236.18.02.821-.315a10.073 10.073 0 0 0 1.823-1.218c.822-.687 1.543-1.434 2.565-2.652 1.041-1.827 2.344-3.42 2.945-5.56.2-.57.38-1.238.501-1.926.12-.688.2-1.395.2-2.122a16.24 16.24 0 0 0-.26-2.396ZM18.493 30.242c3.505-.55 6.45-2.495 8.854-5.148.662-.963 1.182-1.847 1.823-2.81.801-1.965.742-3.713 1.002-4.95.321-2.241-.44-4.048-1.081-5.974-.982-2.24-2.284-3.91-4.568-5.206-5.77-3.576-13.623-2.575-17.37 2.77-.02 0-.12.137-.32.412.26-1.1.922-1.748 1.582-2.378 1.964-1.61 4.248-2.888 6.852-3.516 2.946-.314 5.87 0 8.494 1.277 3.927 2.24 6.532 5.758 7.192 9.921v3.852c-.82 6.308-6.23 11.102-12.46 11.75Zm14.404-14.344C32.756 6.664 23.6.435 14.686 1.693c-2.605.648-5.45 1.945-7.474 3.752-.982.648-1.442 1.847-2.424 2.81C.861 14.011 1.543 21.38 6.431 25.86c.627.623 1.296 1.2 2.003 1.73-4.086-2.458-5.93-6.172-6.57-10.69 0-1.611.32-3.203.66-4.814C4.809 5.032 12-.096 19.834 1.201c1.303.315 2.605.649 3.928.963 1.642.648 3.265 1.611 4.567 2.889 1.302 1.276 2.284 2.888 3.266 4.478.66 1.278.982 2.89 1.302 4.166.06.727.06 1.474 0 2.201Z" clip-rule="evenodd"/>
    <path fill="#fff" fill-rule="evenodd" d="M24.763 16.036c0 3.97-3.326 7.192-7.433 7.192-4.106 0-7.432-3.223-7.432-7.192 0-3.969 3.325-7.191 7.432-7.191s7.433 3.222 7.433 7.192v-.001Z" clip-rule="evenodd"/>
    <path fill="#D7DF23" fill-rule="evenodd" d="M24.803 14.818c-.1-.55-.26-.982-.42-1.591-.642-1.337-1.583-2.378-2.826-3.262-4.647-3.084-11.038-.118-11.719 5.149-.26 2.082.481 4.086 1.803 5.62-.4-.414-.84-.845-1.141-1.337l-.04.04c.04.117.2.196.24.313 0 0-.16 0-.12-.02-.12-.136-.02.08.16.374.16.295.36.57.6.826.342.373.702.707 1.303 1.16.883.45 1.663 1.04 2.685 1.315.28.08.6.157.922.216.34.06.66.08 1.022.08.34 0 .7-.04 1.141-.12a8.197 8.197 0 0 0 1.342-.274 6.947 6.947 0 0 0 2.645-1.494c.38-.352.922-.805 1.342-1.394.341-.668.38-1.002.541-1.297.16-.295.36-.629.501-1.081a9.29 9.29 0 0 0 .2-1.63c-.02-.55-.059-1.081-.18-1.592v-.001Zm-4.768-3.654c.681.392.781.451.42.196.522.118.842.413 1.163.707.781.885 1.422 1.926 1.742 3.124.18 1.356.04 2.711-.54 3.91-1.042 1.828-2.705 3.046-4.689 3.38-.22 0-.46 0-.68.02.56-.1.921-.453 1.943-.826 1.1-.393 2.344-2.22 2.946-3.281 1.762-2.89-.322-5.56-2.305-7.23Zm-3.766 11.355c-3.045-.313-5.39-2.809-5.71-5.697.28 1.611 1.242 2.849 2.544 3.95.461.294 1.142.707 1.603 1.001.781.295 1.242.61 2.003.747h-.44Zm8.193-5.245c-.139.61-.28 1.198-.42 1.808-.301.747-.741 1.513-1.342 2.122-.601.61-1.363 1.08-2.124 1.533-.6.313-1.363.47-1.983.627-.361.04-.782-.117-1.143-.136 4.448-.119 7.493-4.264 6.832-8.37-.32-1.199-.962-2.24-1.743-3.282-.32-.452-.942-.727-1.402-1.18-2.785-1.747-6.47-1.394-8.574.905a9.68 9.68 0 0 0-.823.963c1.123-1.65 2.926-2.81 5.09-3.144.76-.02 1.542.118 2.303.256 3.366 1.02 5.87 4.283 5.329 7.899v-.001Z" clip-rule="evenodd"/>
  </g>
  <defs>
    <clipPath id="a">
      <path fill="#fff" d="M.882.063h92.235v31.875H.882z"/>
    </clipPath>
  </defs>
</svg>
