<svg xmlns="http://www.w3.org/2000/svg" width="80" height="30" fill="none" viewBox="0 0 80 30">
  <g clip-path="url(#a)">
    <path fill="#EE2E24" d="M65.472 28.725c7.51 0 13.619-6.184 13.619-13.785 0-7.605-6.11-13.785-13.619-13.785-7.51 0-13.619 6.18-13.619 13.785 0 7.6 6.108 13.785 13.619 13.785Zm0-18.7c2.676 0 4.855 2.204 4.855 4.913 0 2.71-2.18 4.911-4.856 4.911-2.678 0-4.854-2.201-4.854-4.912 0-2.712 2.177-4.915 4.854-4.915l.001.002Zm-51.382 18.7c7.509 0 13.619-6.184 13.619-13.785 0-7.605-6.11-13.785-13.62-13.785C6.583 1.155.472 7.335.472 14.94c0 7.6 6.111 13.785 13.619 13.785Zm0-18.7c2.677 0 4.855 2.204 4.855 4.913 0 2.71-2.178 4.911-4.855 4.911-2.676 0-4.853-2.201-4.853-4.912 0-2.712 2.178-4.915 4.853-4.915v.002Zm25.683-.311-4.18-8.379h-9.79l9.143 18.33v8.63h9.656v-8.63l9.144-18.33h-9.794l-4.177 8.379h-.002Z"/>
  </g>
  <defs>
    <clipPath id="a">
      <path fill="#fff" d="M.47 0h79.059v30H.47z"/>
    </clipPath>
  </defs>
</svg>
