<svg xmlns="http://www.w3.org/2000/svg" width="104" height="20" fill="none" viewBox="0 0 104 20">
  <path fill="#969696" fill-rule="evenodd" d="M35.227.882h-5.578V8.13h-5.808V.882h-5.58V19.12h5.58v-7.174h5.808v7.174h5.578V.882Zm19.41 14.574V.882h-5.58V19.12h10.09l.839-3.663h-5.348Zm-15.283 3.663h5.578V.882h-5.578V19.12Zm22.62 0h5.577V.882h-5.578V19.12ZM95.06 5.535c0-.99.994-1.45 2.598-1.45 1.757 0 3.669.382 4.966.918l-.456-3.969C100.715.73 99.415.5 97.048.5c-4.51 0-7.566 1.775-7.566 5.496 0 6.407 8.714 5.111 8.714 8.087 0 1.143-.843 1.752-2.907 1.752-1.831 0-4.662-.609-6.341-1.448l.612 4.2c1.68.608 3.972.913 5.807.913 4.66 0 8.482-1.527 8.482-6.106 0-6.102-8.79-4.958-8.79-7.859ZM79.32 14.77c5.194 0 8.48-2.672 8.48-7.325C87.801 2.33 84.287.5 78.554.5c-2.215 0-4.89.152-6.801.382v18.237h5.58v-4.35h1.988Zm2.977-7.249c0 2.365-1.144 3.968-4.049 3.968h-.915V3.954c.324-.02.629-.02.915-.02 2.75.001 4.049 1.297 4.049 3.586ZM7.565 14.77c5.196 0 8.48-2.673 8.48-7.326C16.046 2.33 12.53.5 6.802.5 4.584.5 1.909.652 0 .882v18.237h5.577v-4.35h1.988Zm2.981-7.25c0 2.365-1.147 3.968-4.05 3.968h-.919V3.954c.327-.02.632-.02.918-.02 2.75.001 4.051 1.297 4.051 3.586Z" clip-rule="evenodd"/>
</svg>
