<svg xmlns="http://www.w3.org/2000/svg" width="32" height="32" fill="none" viewBox="0 0 32 32">
  <path fill="#2E4FD7" d="M12 13.333H2.667A1.334 1.334 0 0 1 1.334 12V2.667a1.333 1.333 0 0 1 1.333-1.334H12a1.333 1.333 0 0 1 1.334 1.334V12A1.334 1.334 0 0 1 12 13.333Zm0 17.334H2.667a1.333 1.333 0 0 1-1.333-1.334V20a1.333 1.333 0 0 1 1.333-1.333H12A1.333 1.333 0 0 1 13.334 20v9.333A1.333 1.333 0 0 1 12 30.667Z"/>
  <path fill="#46BA71" d="M17.334 2.667h13.333v2.666H17.333V2.667ZM30.667 20H17.333v2.667h13.334V20Z"/>
  <path fill="#F46953" d="M30.667 26.667H17.333v2.666h13.334v-2.666Zm0-17.334H17.333V12h13.334V9.333Z"/>
</svg>
