<svg xmlns="http://www.w3.org/2000/svg" width="32" height="32" fill="none" viewBox="0 0 32 32">
  <circle cx="16" cy="16" r="16" fill="#E7EBFC"/>
  <path fill="#2E4FD7" d="M7 7h18v18H7" opacity=".01"/>
  <path fill="#2E4FD7" d="M13.06 22a8.302 8.302 0 0 0 8.58-8.25 6.065 6.065 0 0 0 1.11-2.13.33.33 0 0 0-.465-.382 1.41 1.41 0 0 1-1.62-.285 2.917 2.917 0 0 0-4.185-.128 3.098 3.098 0 0 0-.862 2.925c-2.513.15-4.238-1.042-5.618-2.677a.323.323 0 0 0-.562.18 7.26 7.26 0 0 0 3.45 7.537 5.047 5.047 0 0 1-3.353 1.71.337.337 0 0 0-.105.63 8.251 8.251 0 0 0 3.63.87Z"/>
</svg>
