<svg xmlns="http://www.w3.org/2000/svg" width="114" height="28" fill="none" viewBox="0 0 114 28">
  <g clip-path="url(#a)">
    <path fill="#041E42" d="M40.722 10.212v1.487h.046c.54-.796 1.435-1.734 3.42-1.734 1.544 0 2.73.78 3.237 1.958h.046c.434-.595.93-1.046 1.488-1.366.66-.378 1.392-.595 2.316-.595 2.091 0 3.942 1.35 3.942 4.752v6.454H52.03v-6.003c0-1.724-.628-2.722-1.932-2.722-.956 0-1.65.6-1.915 1.337a2.819 2.819 0 0 0-.134.888v6.504h-3.188v-6.25c0-1.465-.602-2.482-1.89-2.482-1.029 0-1.674.757-1.939 1.405-.112.277-.148.596-.148.896v6.427h-3.19V10.212h3.028Zm30.948 0v2.067h.088c.585-1.58 1.974-2.314 3.194-2.314.307 0 .476.023.723.07v2.869c-.293-.04-.564-.079-.945-.079-1.382 0-2.345.75-2.588 1.925-.053.244-.07.507-.07.81v5.612h-3.273v-10.96h2.87Zm8.448-3.63v3.449h2.764v2.79h-2.764v4.118c0 1.333.363 1.978 1.442 1.978.508 0 .882-.06 1.206-.135l.042 2.314c-.434.151-1.357.316-2.295.316-1.104 0-2.024-.359-2.585-.915-.641-.635-.938-1.675-.938-3.156V6.58h3.128ZM35.472 21.168h-3.174V6.582h3.174v14.586Zm-8.463-3.913c0 .2-.017.412-.077.593-.247.76-1.09 1.402-2.14 1.402-.878 0-1.577-.465-1.577-1.449 0-1.504 1.778-1.922 3.798-1.912v1.366h-.004Zm3.17-2.623c0-2.485-1.135-4.667-4.975-4.667-1.97 0-3.536.517-4.39.977l.624 1.995c.78-.46 2.024-.84 3.202-.84 1.95-.003 2.267 1.03 2.267 1.692v.158c-4.249-.006-6.932 1.366-6.932 4.164 0 1.708 1.365 3.308 3.741 3.308 1.463 0 2.683-.544 3.417-1.416h.07s.487 1.893 3.16 1.169c-.141-.79-.187-1.63-.187-2.64v-3.9h.003ZM4.034 6.582a2209.89 2209.89 0 0 1 1.259 6.026c.391 1.843.75 3.775 1.022 5.302h.05c.264-1.623.68-3.16 1.125-5.062l1.569-6.266h3.473l1.467 6.427c.384 1.787.69 3.166.934 4.829h.046c.264-1.679.61-3.114.987-4.95l1.41-6.306h3.332L16.58 21.168c-2.63.537-3.64-.45-3.999-2.017-.36-1.57-1.065-4.555-1.065-4.555-.363-1.636-.645-2.788-.842-4.466h-.05c-.282 1.662-.578 2.827-1.015 4.462l-1.732 6.58c-2.686.5-3.617-.24-4.132-2.252C3.301 17.2.529 6.585.529 6.585h3.505v-.003Zm59.477 10.673c0 .2-.018.412-.078.593-.247.76-1.09 1.402-2.14 1.402-.878 0-1.576-.465-1.576-1.449 0-1.504 1.777-1.922 3.797-1.912v1.366h-.004Zm3.17-2.623c0-2.485-1.136-4.667-4.976-4.667-1.97 0-3.536.517-4.39.977l.624 1.995c.78-.46 2.024-.84 3.202-.84 1.946-.003 2.267 1.03 2.267 1.692v.158c-4.245-.006-6.928 1.366-6.928 4.164 0 1.708 1.368 3.308 3.74 3.308 1.46 0 2.684-.544 3.414-1.416h.074s.487 1.893 3.16 1.169c-.142-.79-.188-1.63-.188-2.64v-3.9Z"/>
    <path fill="#FFC124" d="M95.746 16.145c.313.532.292 1.127-.042 1.398L89.933 21.5c-.601.34-1.501-.072-2.01-.935-.514-.866-.422-1.832.178-2.172l6.39-2.907c.4-.151.942.127 1.255.66Zm7.595 0c.316-.533.854-.808 1.255-.664l6.393 2.908c.601.34.689 1.306.179 2.172-.513.862-1.416 1.271-2.014.935l-5.771-3.956c-.33-.268-.355-.866-.042-1.395Zm-3.8 2.144c.63 0 1.146.316 1.217.732l.622 6.867c0 .68-.812 1.237-1.835 1.237-1.02 0-1.835-.557-1.835-1.237l.62-6.867c.07-.416.586-.732 1.212-.732Zm3.842-7.829 5.771-3.959c.598-.34 1.501.069 2.014.935.51.866.422 1.832-.179 2.172l-6.393 2.91c-.401.145-.942-.13-1.255-.663-.313-.532-.288-1.127.042-1.395Zm-8.892 2.059-6.39-2.911c-.597-.34-.688-1.306-.179-2.172.51-.866 1.413-1.275 2.01-.935l5.772 3.96c.334.264.355.862.042 1.394-.313.533-.854.808-1.255.664Zm3.838-3.54-.618-6.867c0-.68.811-1.237 1.834-1.237 1.023 0 1.835.557 1.835 1.237l-.622 6.867c-.071.412-.587.732-1.216.732-.626 0-1.143-.32-1.213-.732Zm14.4 12.492V21.3h.158c.053 0 .088.034.088.086a.084.084 0 0 1-.088.085h-.158Zm-.13.313c0 .018.014.035.035.035h.067c.017 0 .035-.017.035-.035v-.196h.109l.088.207c.007.013.017.024.031.024h.081a.034.034 0 0 0 .032-.049 6.274 6.274 0 0 1-.095-.192.191.191 0 0 0 .133-.192c0-.131-.109-.207-.218-.207h-.263c-.018 0-.035.018-.035.035v.57Zm-.285-.285c0-.278.232-.505.517-.505a.51.51 0 0 1 .516.505.51.51 0 0 1-.516.505.51.51 0 0 1-.517-.505Zm-.123 0c0 .344.285.626.64.626a.635.635 0 0 0 .639-.626.635.635 0 0 0-.639-.625.633.633 0 0 0-.64.625Z"/>
  </g>
  <defs>
    <clipPath id="a">
      <path fill="#fff" d="M.53.875h112.941v26.25H.53z"/>
    </clipPath>
  </defs>
</svg>
