<svg xmlns="http://www.w3.org/2000/svg" width="32" height="32" fill="none" viewBox="0 0 32 32">
  <path fill="#46BA71" d="M6.667 1.333h-4a1.333 1.333 0 0 0-1.333 1.334v26.666a1.333 1.333 0 0 0 1.333 1.334h4V1.333Z"/>
  <path fill="#2E4FD7" d="M9.334 30.667h13.333V1.333H9.333v29.334ZM16 25.333a1.333 1.333 0 1 1 0-2.666 1.333 1.333 0 0 1 0 2.666Zm0-18.666a1.333 1.333 0 1 1 0 2.667 1.333 1.333 0 0 1 0-2.667Zm0 8a1.334 1.334 0 1 1 0 2.667 1.334 1.334 0 0 1 0-2.667Z"/>
  <path fill="#F46953" d="M29.334 1.333h-4v29.334h4a1.333 1.333 0 0 0 1.333-1.334V2.667a1.333 1.333 0 0 0-1.334-1.334Z"/>
</svg>
